<svg xmlns="http://www.w3.org/2000/svg" width="19.591" height="16.182" viewBox="0 0 19.591 16.182">
  <g id="Group_3886" data-name="Group 3886" transform="translate(0 -8)">
    <path id="Path_19" data-name="Path 19" d="M17.406,1.617H16.313V0H14.141V1.617h-8.7V0H3.265V1.617H2.185a2.582,2.582,0,0,0-1.532.474A1.432,1.432,0,0,0,.024,3.235L0,14.573c.007.89.977,1.608,2.173,1.608H17.406c1.2,0,2.178-.715,2.185-1.608V3.235c-.007-.893-.985-1.613-2.185-1.608Zm0,12.956H2.161V5.665H17.406Z" transform="translate(0 8)" fill="#fff"/>
    <path id="Path_20" data-name="Path 20" d="M3.62,8.15H14.5v2.173H3.62Z" transform="translate(0.725 6.855)" fill="#fff"/>
    <path id="Path_21" data-name="Path 21" d="M3.62,11.78h7.611v2.161H3.62Z" transform="translate(0.725 6.347)" fill="#fff"/>
  </g>
</svg>
